<svg width="29" height="29" viewBox="0 0 29 29" fill="none" xmlns="http://www.w3.org/2000/svg">
<circle cx="22" cy="9.82762" r="1" fill="#FFB84A"/>
<path d="M23.7715 11.6568C23.8946 11.7348 24.0021 11.8359 24.0876 11.9543C24.1731 12.0727 24.2349 12.206 24.2695 12.3464C24.3513 12.671 24.4155 12.9991 24.4619 13.3291C24.5008 13.6171 24.4249 13.904 24.2507 14.1268C24.0765 14.3496 23.8183 14.4901 23.5327 14.5176C23.247 14.5451 22.9573 14.4573 22.727 14.2734C22.4968 14.0895 22.3447 13.8246 22.3042 13.5367C22.2694 13.2874 22.2213 13.0396 22.1603 12.7943C22.107 12.5829 22.1169 12.363 22.1886 12.1626C22.2603 11.9622 22.3907 11.7902 22.5632 11.6684C22.7357 11.5466 22.9426 11.4805 23.1577 11.4784C23.3728 11.4764 23.5864 11.5385 23.7715 11.6568Z" fill="#FFB84A"/>
<path d="M23.9078 18.4807C23.8294 18.6428 23.7204 18.7895 23.587 18.9124C23.4537 19.0353 23.2987 19.132 23.1308 19.1969C22.9628 19.2619 22.7853 19.2938 22.6084 19.2909C22.4314 19.288 22.2585 19.2503 22.0994 19.1801C21.9404 19.1098 21.7984 19.0082 21.6814 18.8812C21.5645 18.7543 21.475 18.6043 21.418 18.44C21.361 18.2756 21.3376 18.1001 21.3492 17.9234C21.3608 17.7467 21.4071 17.5723 21.4855 17.4101C21.6226 17.1255 21.7448 16.8344 21.8516 16.5383C21.9118 16.3689 22.0045 16.2113 22.1243 16.0747C22.2441 15.938 22.3887 15.825 22.5497 15.7421C22.7108 15.6591 22.8851 15.6079 23.0628 15.5914C23.2404 15.5749 23.4179 15.5934 23.5849 15.6458C23.752 15.6982 23.9054 15.7836 24.0364 15.8969C24.1673 16.0102 24.2733 16.1494 24.3481 16.3063C24.4229 16.4632 24.4651 16.6348 24.4723 16.8113C24.4795 16.9878 24.4515 17.1657 24.39 17.3348C24.25 17.7242 24.089 18.1068 23.9078 18.4807Z" fill="#FFB84A"/>
<path d="M7.4984 6.77975C9.32376 5.09284 11.6994 4.12586 14.184 4.05847L13.8708 3.6755C13.667 3.41712 13.5712 3.08984 13.6035 2.76233C13.6358 2.43482 13.7937 2.13255 14.044 1.91896L14.0469 1.91631C14.3038 1.7073 14.6331 1.60856 14.9626 1.64169C15.2922 1.67481 15.5952 1.83711 15.8054 2.09307L18.0879 4.88356C18.1115 4.91237 18.1183 4.94803 18.1389 4.97838C18.1697 5.01192 18.1985 5.04716 18.2253 5.08395C18.24 5.12482 18.2526 5.16643 18.263 5.20862C18.3204 5.35313 18.3516 5.50669 18.3552 5.66212C18.3548 5.74001 18.3469 5.81767 18.3318 5.89407C18.3297 5.94135 18.3249 5.98847 18.3175 6.0352C18.3023 6.07384 18.2852 6.11169 18.2663 6.14862C18.2529 6.18148 18.2395 6.21262 18.2231 6.24444C18.1608 6.37177 18.077 6.48741 17.9753 6.58628L17.9734 6.58776L17.9726 6.58892L15.5627 8.83314C15.3202 9.05915 14.9978 9.17955 14.6665 9.16787C14.3352 9.15618 14.0221 9.01335 13.7961 8.77081C13.5701 8.52827 13.4497 8.20588 13.4613 7.87457C13.473 7.54325 13.6159 7.23015 13.8584 7.00414L14.3483 6.54794C13.1396 6.56828 11.9525 6.87148 10.8821 7.43323C9.81167 7.99499 8.88774 8.79969 8.18433 9.78283C7.48092 10.766 7.01759 11.9002 6.83149 13.0947C6.64538 14.2891 6.74168 15.5106 7.11265 16.6611C7.48361 17.8117 8.11894 18.8593 8.96772 19.7201C9.81649 20.5809 10.8551 21.2308 12.0003 21.6179C13.1455 22.005 14.3655 22.1185 15.5625 21.9491C16.7594 21.7798 17.9001 21.3325 18.893 20.643C19.0329 20.546 19.1703 20.4463 19.3019 20.342C19.4607 20.2158 19.6189 20.089 19.7696 19.9485C20.0121 19.7225 20.3345 19.6021 20.6658 19.6138C20.9972 19.6255 21.3103 19.7683 21.5363 20.0109C21.7623 20.2534 21.8827 20.5758 21.871 20.9071C21.8593 21.2384 21.7165 21.5515 21.4739 21.7775C21.3527 21.8906 21.2228 21.9882 21.0976 22.0942C21.0858 22.1062 21.0812 22.1221 21.0689 22.1336L21.0097 22.1861C20.9571 22.2292 20.8968 22.2659 20.8432 22.3082C20.6713 22.4443 20.4952 22.5708 20.3169 22.6943C20.2406 22.747 20.1721 22.8067 20.0939 22.8579C20.081 22.8662 20.0661 22.8663 20.0531 22.8742C17.9029 24.2683 15.3083 24.806 12.7812 24.3811C10.254 23.9563 7.97784 22.5998 6.40167 20.5792C4.8255 18.5587 4.0638 16.0208 4.26682 13.4662C4.46985 10.9117 5.62286 8.52598 7.4984 6.77975Z" fill="#FFB84A"/>
</svg>
