<svg width="90" height="49" viewBox="0 0 90 49" fill="none" xmlns="http://www.w3.org/2000/svg">
<path d="M26.8438 0.968741C26.3998 1.00856 25.9818 1.19554 25.6563 1.49999L1.65625 23.5C1.44862 23.6875 1.28264 23.9165 1.16903 24.1722C1.05543 24.4279 0.996735 24.7046 0.996735 24.9844C0.996735 25.2642 1.05543 25.5408 1.16903 25.7965C1.28264 26.0522 1.44862 26.2812 1.65625 26.4687L25.6563 48.4687C25.851 48.6465 26.0789 48.7841 26.3269 48.8736C26.5749 48.9631 26.8382 49.0027 27.1015 48.9902C27.3649 48.9776 27.6232 48.9132 27.8616 48.8006C28.1 48.688 28.3138 48.5294 28.4908 48.3339C28.6677 48.1384 28.8043 47.9099 28.8928 47.6615C28.9812 47.4131 29.0196 47.1497 29.006 46.8864C28.9923 46.6231 28.9268 46.3651 28.8131 46.1272C28.6995 45.8892 28.54 45.6761 28.3438 45.5L8.15625 27H87C88.0566 27.015 89.0312 26.0567 89.0312 25C89.0312 23.9433 88.0566 22.9851 87 23H8.15625L28.3438 4.46874C28.663 4.19077 28.8858 3.81867 28.9802 3.40601C29.0745 2.99335 29.0355 2.56139 28.8688 2.17231C28.702 1.78322 28.4161 1.45707 28.0522 1.24079C27.6883 1.02452 27.2652 0.929263 26.8438 0.968741Z" fill="#9092A0"/>
</svg>
