<svg width="20" height="20" viewBox="0 0 20 20" fill="none" xmlns="http://www.w3.org/2000/svg">
<path d="M19.707 18.293L14.3116 12.8976C15.3656 11.5425 16 9.84564 16 8C16 3.58887 12.4111 0 8 0C3.58887 0 0 3.58887 0 8C0 12.4111 3.58887 16 8 16C9.84564 16 11.5425 15.3656 12.8976 14.3116L18.293 19.707C18.4883 19.9023 18.7441 20 19 20C19.2559 20 19.5117 19.9023 19.707 19.707C20.0977 19.3164 20.0977 18.6836 19.707 18.293ZM2 8C2 4.69141 4.69141 2 8 2C11.3086 2 14 4.69141 14 8C14 11.3086 11.3086 14 8 14C4.69141 14 2 11.3086 2 8Z" fill="#9092A0"/>
</svg>
