<svg width="54" height="56" viewBox="0 0 54 56" fill="none" xmlns="http://www.w3.org/2000/svg">
<mask id="path-1-outside-1_2_38" maskUnits="userSpaceOnUse" x="-1" y="0" width="56" height="56" fill="black">
<rect fill="white" x="-1" width="56" height="56"/>
<path fill-rule="evenodd" clip-rule="evenodd" d="M27.0002 16.9545C20.9234 16.9545 15.9981 21.8992 15.9981 28C15.9981 34.1008 20.9234 39.0455 27.0002 39.0455C33.077 39.0455 38.0023 34.1008 38.0023 28C38.0023 21.8992 33.077 16.9545 27.0002 16.9545ZM31.5861 1C31.7744 1 32.0446 1.02086 32.3514 1.12395C33.0531 1.35714 33.4455 1.86032 33.5311 1.972C33.7279 2.23464 33.8416 2.4985 33.9088 2.71205C34.2071 3.89514 34.5029 5.07945 34.8 6.26255C34.8354 6.39509 34.8855 6.54236 34.9564 6.69577C35.1875 7.18668 35.5286 7.49841 35.762 7.67391C36.361 8.06786 36.9601 8.46182 37.5603 8.85577C38.2754 9.21045 38.9905 9.56636 39.7057 9.92227C39.9001 10.0168 40.257 10.1591 40.7228 10.1702C40.7411 10.1702 40.7594 10.1702 40.7778 10.1702C41.1494 10.1702 41.4465 10.0843 41.6298 10.0155C42.5675 9.69768 43.5039 9.37982 44.4415 9.06073C44.5796 8.99814 44.9622 8.84105 45.4683 8.84105C45.6603 8.84105 45.8705 8.86436 46.0918 8.92327C47.0306 9.17364 47.4854 9.8965 47.5795 10.0511C49.1993 12.7806 50.819 15.51 52.4388 18.2383C52.5366 18.4003 52.6613 18.6506 52.7334 18.9746C52.8923 19.7 52.6625 20.2964 52.6099 20.4265C52.4865 20.7309 52.319 20.964 52.1711 21.131C51.3105 21.9925 50.4498 22.8553 49.5892 23.7168C49.4939 23.815 49.3936 23.934 49.2983 24.074C48.9976 24.5231 48.9047 24.9785 48.8741 25.2681C48.8313 26.2916 48.7885 27.314 48.7445 28.3375C48.7787 28.8309 48.8105 29.3242 48.8448 29.8176C48.8594 30.036 48.9169 30.4153 49.1418 30.8252C49.335 31.175 49.5709 31.4045 49.731 31.537C50.4767 32.1887 51.2212 32.8416 51.9669 33.4945C52.1368 33.6172 52.6955 34.0529 52.9143 34.858C53.171 35.7981 52.7774 36.5578 52.6906 36.7173C51.1552 39.4946 49.6198 42.272 48.0856 45.0505C47.9939 45.2162 47.8423 45.4506 47.5979 45.6752C47.0551 46.1784 46.4255 46.279 46.2874 46.2986C46.17 46.3146 46.0576 46.322 45.9524 46.322C45.7666 46.322 45.5991 46.2999 45.4598 46.2716C44.285 45.9587 43.109 45.6445 41.9342 45.3315C41.8022 45.2972 41.6494 45.269 41.4819 45.2579C41.4257 45.2542 41.3719 45.253 41.3181 45.253C40.8548 45.253 40.4771 45.3831 40.2399 45.4899C39.8768 45.6813 39.5529 45.912 39.1898 46.1035C37.9894 46.8521 36.7901 47.6008 35.5909 48.3494C35.4075 48.466 35.1007 48.6955 34.8452 49.087C34.6276 49.422 34.5384 49.7399 34.4968 49.9424L33.8257 52.8437C33.7976 53.0523 33.6765 53.7519 33.0714 54.325C32.393 54.9669 31.58 55 31.3575 55C31.3478 55 31.3392 55 31.3319 55C28.1694 54.9448 25.0057 54.8883 21.8407 54.8331C21.6525 54.8306 21.375 54.8061 21.0632 54.6956C20.3652 54.4502 19.9814 53.9396 19.8982 53.8255C19.7063 53.5604 19.5975 53.2953 19.5327 53.0805C19.2577 51.8913 18.9802 50.7033 18.7039 49.5141C18.6721 49.3803 18.6244 49.233 18.5548 49.0784C18.3335 48.5838 17.9973 48.266 17.7687 48.0868C16.9252 47.5112 16.0805 46.9356 15.237 46.36C14.8018 46.128 14.3679 45.8961 13.9327 45.6641C13.7395 45.5635 13.3874 45.4113 12.9217 45.3868C12.8813 45.3855 12.841 45.3843 12.8007 45.3843C12.4596 45.3843 12.1846 45.4555 12.0097 45.5156C11.0648 45.8077 10.1198 46.0998 9.17487 46.3907C9.0404 46.4471 8.68222 46.5834 8.21035 46.5834C8.00009 46.5834 7.7666 46.5564 7.51966 46.4827C6.58937 46.2041 6.15418 45.469 6.06494 45.3119L1.43673 36.991C1.34382 36.8265 1.22646 36.5725 1.1629 36.246C1.02476 35.517 1.27047 34.9292 1.32793 34.7991C1.45873 34.4984 1.63232 34.2701 1.78635 34.1069C2.67018 33.2699 3.55402 32.4329 4.43907 31.5947C4.53809 31.5002 4.64078 31.3848 4.7398 31.2474C5.05397 30.8055 5.1591 30.3539 5.19822 30.0655L5.23489 29.5341C5.1701 28.1559 5.10531 26.7776 5.04175 25.4006C5.02952 25.1834 4.98062 24.8017 4.76425 24.3869C4.57843 24.0335 4.34495 23.799 4.18969 23.664C3.45744 22.9964 2.72642 22.3288 1.99416 21.6611C1.82669 21.5347 1.27536 21.088 1.07243 20.278C0.8365 19.333 1.2448 18.5819 1.33404 18.4248C2.92568 15.6794 4.51609 12.9328 6.1065 10.1874C6.20063 10.0229 6.35711 9.79218 6.60527 9.57127C7.15904 9.08036 7.78982 8.992 7.92918 8.97605C8.0282 8.96377 8.12478 8.95764 8.21646 8.95764C8.42183 8.95764 8.6052 8.98464 8.75556 9.019C9.92423 9.3565 11.0929 9.69277 12.2616 10.0303C12.3936 10.0671 12.544 10.0978 12.7127 10.1113C12.7872 10.1186 12.8581 10.1211 12.9278 10.1211C13.3679 10.1211 13.7285 10.0045 13.9596 9.90509C14.8715 9.44732 15.7835 8.98832 16.6954 8.52932L17.9362 7.72423C18.1171 7.60395 18.4215 7.36955 18.6685 6.97436C18.8799 6.63564 18.9655 6.31532 19.0034 6.11282C19.2088 5.14205 19.4166 4.17005 19.6232 3.19927C19.6476 2.99064 19.7564 2.28864 20.3518 1.70568C21.0449 1.02455 21.8982 1 22.0791 1H31.5715C31.5764 1 31.5812 1 31.5861 1ZM27.0002 19.4091C31.7189 19.4091 35.5574 23.2627 35.5574 28C35.5574 32.7373 31.7189 36.5909 27.0002 36.5909C22.2815 36.5909 18.443 32.7373 18.443 28C18.443 23.2627 22.2815 19.4091 27.0002 19.4091ZM31.5739 3.45455H22.0791L22.0644 3.57236L22.0143 3.7135L21.3994 6.59882C21.2845 7.1965 21.062 7.76227 20.7393 8.27895C20.3652 8.87909 19.8738 9.38227 19.2821 9.77377L18.0218 10.5911L17.9093 10.6635L17.7907 10.7237L15.9485 11.6503L15.0549 12.0995L14.9852 12.135L14.9143 12.1657C14.2749 12.4382 13.6063 12.5756 12.9278 12.5756C12.7897 12.5756 12.6466 12.5695 12.5012 12.5572C12.2078 12.5315 11.9095 12.4787 11.6173 12.3989L9.86189 11.892L8.22257 11.4183L5.21778 16.6035L3.44766 19.6595L3.53813 19.727L3.63714 19.8448L4.66278 20.78L5.81434 21.8293C6.27154 22.2306 6.64561 22.7068 6.92799 23.2443C7.25317 23.8653 7.44387 24.5636 7.48299 25.2644L7.67736 29.4175L7.68347 29.5623L7.67369 29.7059L7.63702 30.2373L7.63091 30.3159L7.62113 30.3956C7.50866 31.224 7.19938 32.0132 6.72873 32.6747C6.55148 32.9214 6.35344 33.1509 6.13707 33.362L5.61752 33.8541L3.57113 35.7895L8.19935 44.1141L8.30815 44.0699L8.45606 44.0454L11.264 43.1777C11.7616 43.0132 12.2787 42.9298 12.8007 42.9298C12.8801 42.9298 12.9608 42.9322 13.0439 42.9359C13.7468 42.9727 14.4436 43.163 15.0634 43.4894L15.7346 43.8465L16.3837 44.1926L16.5023 44.2552L16.6111 44.3301L17.3103 44.8063L19.1415 46.0556L19.2076 46.101L19.2687 46.1489C19.9276 46.6644 20.452 47.3283 20.7857 48.0708C20.9092 48.3519 21.0082 48.639 21.0791 48.9311L21.4459 50.5094L21.8798 52.3736L26.4347 52.4583L31.3759 52.5455L31.3905 52.4289L31.4431 52.2877L32.1093 49.4122C32.2353 48.8145 32.4675 48.2537 32.7976 47.7456C33.1839 47.1516 33.6826 46.6582 34.2829 46.2765L35.3207 45.6273L38.015 43.892L38.8549 43.4477L39.1006 43.3176L39.1702 43.2808L39.2424 43.2489C39.9098 42.9494 40.6079 42.7985 41.3181 42.7985C41.4245 42.7985 41.532 42.8021 41.6421 42.8083C41.9489 42.8291 42.2508 42.8782 42.5454 42.9555L45.9451 43.8613L50.5538 35.5256L50.4584 35.4569L50.3582 35.344L48.1443 33.4037C47.6785 33.011 47.2935 32.5421 47.0013 32.0095C46.6627 31.3946 46.4561 30.6975 46.406 29.9943L46.3558 29.2395L46.3057 28.5056L46.2959 28.3694L46.3021 28.2332L46.3155 27.908L46.4316 25.165L46.4341 25.0877L46.4426 25.0091C46.5307 24.1783 46.8167 23.3805 47.2702 22.7043C47.4402 22.4515 47.6309 22.2183 47.8387 22.0023L49.1076 20.7321L50.341 19.4962L45.4793 11.3079L45.373 11.3557L45.2263 11.3852L42.4415 12.3314C41.9061 12.5265 41.3462 12.6247 40.7778 12.6247H40.7497L40.6678 12.6235C39.9612 12.6075 39.2803 12.4419 38.6421 12.1326L36.476 11.055L36.3439 10.99L36.2217 10.9102L35.2474 10.2696L34.4222 9.72836L34.3574 9.68541L34.2939 9.63755C33.6276 9.13559 33.0922 8.48023 32.745 7.74264C32.6167 7.4665 32.5115 7.17932 32.4357 6.886L31.9627 5.00091L31.5739 3.45455Z"/>
</mask>
<path fill-rule="evenodd" clip-rule="evenodd" d="M27.0002 16.9545C20.9234 16.9545 15.9981 21.8992 15.9981 28C15.9981 34.1008 20.9234 39.0455 27.0002 39.0455C33.077 39.0455 38.0023 34.1008 38.0023 28C38.0023 21.8992 33.077 16.9545 27.0002 16.9545ZM31.5861 1C31.7744 1 32.0446 1.02086 32.3514 1.12395C33.0531 1.35714 33.4455 1.86032 33.5311 1.972C33.7279 2.23464 33.8416 2.4985 33.9088 2.71205C34.2071 3.89514 34.5029 5.07945 34.8 6.26255C34.8354 6.39509 34.8855 6.54236 34.9564 6.69577C35.1875 7.18668 35.5286 7.49841 35.762 7.67391C36.361 8.06786 36.9601 8.46182 37.5603 8.85577C38.2754 9.21045 38.9905 9.56636 39.7057 9.92227C39.9001 10.0168 40.257 10.1591 40.7228 10.1702C40.7411 10.1702 40.7594 10.1702 40.7778 10.1702C41.1494 10.1702 41.4465 10.0843 41.6298 10.0155C42.5675 9.69768 43.5039 9.37982 44.4415 9.06073C44.5796 8.99814 44.9622 8.84105 45.4683 8.84105C45.6603 8.84105 45.8705 8.86436 46.0918 8.92327C47.0306 9.17364 47.4854 9.8965 47.5795 10.0511C49.1993 12.7806 50.819 15.51 52.4388 18.2383C52.5366 18.4003 52.6613 18.6506 52.7334 18.9746C52.8923 19.7 52.6625 20.2964 52.6099 20.4265C52.4865 20.7309 52.319 20.964 52.1711 21.131C51.3105 21.9925 50.4498 22.8553 49.5892 23.7168C49.4939 23.815 49.3936 23.934 49.2983 24.074C48.9976 24.5231 48.9047 24.9785 48.8741 25.2681C48.8313 26.2916 48.7885 27.314 48.7445 28.3375C48.7787 28.8309 48.8105 29.3242 48.8448 29.8176C48.8594 30.036 48.9169 30.4153 49.1418 30.8252C49.335 31.175 49.5709 31.4045 49.731 31.537C50.4767 32.1887 51.2212 32.8416 51.9669 33.4945C52.1368 33.6172 52.6955 34.0529 52.9143 34.858C53.171 35.7981 52.7774 36.5578 52.6906 36.7173C51.1552 39.4946 49.6198 42.272 48.0856 45.0505C47.9939 45.2162 47.8423 45.4506 47.5979 45.6752C47.0551 46.1784 46.4255 46.279 46.2874 46.2986C46.17 46.3146 46.0576 46.322 45.9524 46.322C45.7666 46.322 45.5991 46.2999 45.4598 46.2716C44.285 45.9587 43.109 45.6445 41.9342 45.3315C41.8022 45.2972 41.6494 45.269 41.4819 45.2579C41.4257 45.2542 41.3719 45.253 41.3181 45.253C40.8548 45.253 40.4771 45.3831 40.2399 45.4899C39.8768 45.6813 39.5529 45.912 39.1898 46.1035C37.9894 46.8521 36.7901 47.6008 35.5909 48.3494C35.4075 48.466 35.1007 48.6955 34.8452 49.087C34.6276 49.422 34.5384 49.7399 34.4968 49.9424L33.8257 52.8437C33.7976 53.0523 33.6765 53.7519 33.0714 54.325C32.393 54.9669 31.58 55 31.3575 55C31.3478 55 31.3392 55 31.3319 55C28.1694 54.9448 25.0057 54.8883 21.8407 54.8331C21.6525 54.8306 21.375 54.8061 21.0632 54.6956C20.3652 54.4502 19.9814 53.9396 19.8982 53.8255C19.7063 53.5604 19.5975 53.2953 19.5327 53.0805C19.2577 51.8913 18.9802 50.7033 18.7039 49.5141C18.6721 49.3803 18.6244 49.233 18.5548 49.0784C18.3335 48.5838 17.9973 48.266 17.7687 48.0868C16.9252 47.5112 16.0805 46.9356 15.237 46.36C14.8018 46.128 14.3679 45.8961 13.9327 45.6641C13.7395 45.5635 13.3874 45.4113 12.9217 45.3868C12.8813 45.3855 12.841 45.3843 12.8007 45.3843C12.4596 45.3843 12.1846 45.4555 12.0097 45.5156C11.0648 45.8077 10.1198 46.0998 9.17487 46.3907C9.0404 46.4471 8.68222 46.5834 8.21035 46.5834C8.00009 46.5834 7.7666 46.5564 7.51966 46.4827C6.58937 46.2041 6.15418 45.469 6.06494 45.3119L1.43673 36.991C1.34382 36.8265 1.22646 36.5725 1.1629 36.246C1.02476 35.517 1.27047 34.9292 1.32793 34.7991C1.45873 34.4984 1.63232 34.2701 1.78635 34.1069C2.67018 33.2699 3.55402 32.4329 4.43907 31.5947C4.53809 31.5002 4.64078 31.3848 4.7398 31.2474C5.05397 30.8055 5.1591 30.3539 5.19822 30.0655L5.23489 29.5341C5.1701 28.1559 5.10531 26.7776 5.04175 25.4006C5.02952 25.1834 4.98062 24.8017 4.76425 24.3869C4.57843 24.0335 4.34495 23.799 4.18969 23.664C3.45744 22.9964 2.72642 22.3288 1.99416 21.6611C1.82669 21.5347 1.27536 21.088 1.07243 20.278C0.8365 19.333 1.2448 18.5819 1.33404 18.4248C2.92568 15.6794 4.51609 12.9328 6.1065 10.1874C6.20063 10.0229 6.35711 9.79218 6.60527 9.57127C7.15904 9.08036 7.78982 8.992 7.92918 8.97605C8.0282 8.96377 8.12478 8.95764 8.21646 8.95764C8.42183 8.95764 8.6052 8.98464 8.75556 9.019C9.92423 9.3565 11.0929 9.69277 12.2616 10.0303C12.3936 10.0671 12.544 10.0978 12.7127 10.1113C12.7872 10.1186 12.8581 10.1211 12.9278 10.1211C13.3679 10.1211 13.7285 10.0045 13.9596 9.90509C14.8715 9.44732 15.7835 8.98832 16.6954 8.52932L17.9362 7.72423C18.1171 7.60395 18.4215 7.36955 18.6685 6.97436C18.8799 6.63564 18.9655 6.31532 19.0034 6.11282C19.2088 5.14205 19.4166 4.17005 19.6232 3.19927C19.6476 2.99064 19.7564 2.28864 20.3518 1.70568C21.0449 1.02455 21.8982 1 22.0791 1H31.5715C31.5764 1 31.5812 1 31.5861 1ZM27.0002 19.4091C31.7189 19.4091 35.5574 23.2627 35.5574 28C35.5574 32.7373 31.7189 36.5909 27.0002 36.5909C22.2815 36.5909 18.443 32.7373 18.443 28C18.443 23.2627 22.2815 19.4091 27.0002 19.4091ZM31.5739 3.45455H22.0791L22.0644 3.57236L22.0143 3.7135L21.3994 6.59882C21.2845 7.1965 21.062 7.76227 20.7393 8.27895C20.3652 8.87909 19.8738 9.38227 19.2821 9.77377L18.0218 10.5911L17.9093 10.6635L17.7907 10.7237L15.9485 11.6503L15.0549 12.0995L14.9852 12.135L14.9143 12.1657C14.2749 12.4382 13.6063 12.5756 12.9278 12.5756C12.7897 12.5756 12.6466 12.5695 12.5012 12.5572C12.2078 12.5315 11.9095 12.4787 11.6173 12.3989L9.86189 11.892L8.22257 11.4183L5.21778 16.6035L3.44766 19.6595L3.53813 19.727L3.63714 19.8448L4.66278 20.78L5.81434 21.8293C6.27154 22.2306 6.64561 22.7068 6.92799 23.2443C7.25317 23.8653 7.44387 24.5636 7.48299 25.2644L7.67736 29.4175L7.68347 29.5623L7.67369 29.7059L7.63702 30.2373L7.63091 30.3159L7.62113 30.3956C7.50866 31.224 7.19938 32.0132 6.72873 32.6747C6.55148 32.9214 6.35344 33.1509 6.13707 33.362L5.61752 33.8541L3.57113 35.7895L8.19935 44.1141L8.30815 44.0699L8.45606 44.0454L11.264 43.1777C11.7616 43.0132 12.2787 42.9298 12.8007 42.9298C12.8801 42.9298 12.9608 42.9322 13.0439 42.9359C13.7468 42.9727 14.4436 43.163 15.0634 43.4894L15.7346 43.8465L16.3837 44.1926L16.5023 44.2552L16.6111 44.3301L17.3103 44.8063L19.1415 46.0556L19.2076 46.101L19.2687 46.1489C19.9276 46.6644 20.452 47.3283 20.7857 48.0708C20.9092 48.3519 21.0082 48.639 21.0791 48.9311L21.4459 50.5094L21.8798 52.3736L26.4347 52.4583L31.3759 52.5455L31.3905 52.4289L31.4431 52.2877L32.1093 49.4122C32.2353 48.8145 32.4675 48.2537 32.7976 47.7456C33.1839 47.1516 33.6826 46.6582 34.2829 46.2765L35.3207 45.6273L38.015 43.892L38.8549 43.4477L39.1006 43.3176L39.1702 43.2808L39.2424 43.2489C39.9098 42.9494 40.6079 42.7985 41.3181 42.7985C41.4245 42.7985 41.532 42.8021 41.6421 42.8083C41.9489 42.8291 42.2508 42.8782 42.5454 42.9555L45.9451 43.8613L50.5538 35.5256L50.4584 35.4569L50.3582 35.344L48.1443 33.4037C47.6785 33.011 47.2935 32.5421 47.0013 32.0095C46.6627 31.3946 46.4561 30.6975 46.406 29.9943L46.3558 29.2395L46.3057 28.5056L46.2959 28.3694L46.3021 28.2332L46.3155 27.908L46.4316 25.165L46.4341 25.0877L46.4426 25.0091C46.5307 24.1783 46.8167 23.3805 47.2702 22.7043C47.4402 22.4515 47.6309 22.2183 47.8387 22.0023L49.1076 20.7321L50.341 19.4962L45.4793 11.3079L45.373 11.3557L45.2263 11.3852L42.4415 12.3314C41.9061 12.5265 41.3462 12.6247 40.7778 12.6247H40.7497L40.6678 12.6235C39.9612 12.6075 39.2803 12.4419 38.6421 12.1326L36.476 11.055L36.3439 10.99L36.2217 10.9102L35.2474 10.2696L34.4222 9.72836L34.3574 9.68541L34.2939 9.63755C33.6276 9.13559 33.0922 8.48023 32.745 7.74264C32.6167 7.4665 32.5115 7.17932 32.4357 6.886L31.9627 5.00091L31.5739 3.45455Z" fill="#9092A0"/>
<path fill-rule="evenodd" clip-rule="evenodd" d="M27.0002 16.9545C20.9234 16.9545 15.9981 21.8992 15.9981 28C15.9981 34.1008 20.9234 39.0455 27.0002 39.0455C33.077 39.0455 38.0023 34.1008 38.0023 28C38.0023 21.8992 33.077 16.9545 27.0002 16.9545ZM31.5861 1C31.7744 1 32.0446 1.02086 32.3514 1.12395C33.0531 1.35714 33.4455 1.86032 33.5311 1.972C33.7279 2.23464 33.8416 2.4985 33.9088 2.71205C34.2071 3.89514 34.5029 5.07945 34.8 6.26255C34.8354 6.39509 34.8855 6.54236 34.9564 6.69577C35.1875 7.18668 35.5286 7.49841 35.762 7.67391C36.361 8.06786 36.9601 8.46182 37.5603 8.85577C38.2754 9.21045 38.9905 9.56636 39.7057 9.92227C39.9001 10.0168 40.257 10.1591 40.7228 10.1702C40.7411 10.1702 40.7594 10.1702 40.7778 10.1702C41.1494 10.1702 41.4465 10.0843 41.6298 10.0155C42.5675 9.69768 43.5039 9.37982 44.4415 9.06073C44.5796 8.99814 44.9622 8.84105 45.4683 8.84105C45.6603 8.84105 45.8705 8.86436 46.0918 8.92327C47.0306 9.17364 47.4854 9.8965 47.5795 10.0511C49.1993 12.7806 50.819 15.51 52.4388 18.2383C52.5366 18.4003 52.6613 18.6506 52.7334 18.9746C52.8923 19.7 52.6625 20.2964 52.6099 20.4265C52.4865 20.7309 52.319 20.964 52.1711 21.131C51.3105 21.9925 50.4498 22.8553 49.5892 23.7168C49.4939 23.815 49.3936 23.934 49.2983 24.074C48.9976 24.5231 48.9047 24.9785 48.8741 25.2681C48.8313 26.2916 48.7885 27.314 48.7445 28.3375C48.7787 28.8309 48.8105 29.3242 48.8448 29.8176C48.8594 30.036 48.9169 30.4153 49.1418 30.8252C49.335 31.175 49.5709 31.4045 49.731 31.537C50.4767 32.1887 51.2212 32.8416 51.9669 33.4945C52.1368 33.6172 52.6955 34.0529 52.9143 34.858C53.171 35.7981 52.7774 36.5578 52.6906 36.7173C51.1552 39.4946 49.6198 42.272 48.0856 45.0505C47.9939 45.2162 47.8423 45.4506 47.5979 45.6752C47.0551 46.1784 46.4255 46.279 46.2874 46.2986C46.17 46.3146 46.0576 46.322 45.9524 46.322C45.7666 46.322 45.5991 46.2999 45.4598 46.2716C44.285 45.9587 43.109 45.6445 41.9342 45.3315C41.8022 45.2972 41.6494 45.269 41.4819 45.2579C41.4257 45.2542 41.3719 45.253 41.3181 45.253C40.8548 45.253 40.4771 45.3831 40.2399 45.4899C39.8768 45.6813 39.5529 45.912 39.1898 46.1035C37.9894 46.8521 36.7901 47.6008 35.5909 48.3494C35.4075 48.466 35.1007 48.6955 34.8452 49.087C34.6276 49.422 34.5384 49.7399 34.4968 49.9424L33.8257 52.8437C33.7976 53.0523 33.6765 53.7519 33.0714 54.325C32.393 54.9669 31.58 55 31.3575 55C31.3478 55 31.3392 55 31.3319 55C28.1694 54.9448 25.0057 54.8883 21.8407 54.8331C21.6525 54.8306 21.375 54.8061 21.0632 54.6956C20.3652 54.4502 19.9814 53.9396 19.8982 53.8255C19.7063 53.5604 19.5975 53.2953 19.5327 53.0805C19.2577 51.8913 18.9802 50.7033 18.7039 49.5141C18.6721 49.3803 18.6244 49.233 18.5548 49.0784C18.3335 48.5838 17.9973 48.266 17.7687 48.0868C16.9252 47.5112 16.0805 46.9356 15.237 46.36C14.8018 46.128 14.3679 45.8961 13.9327 45.6641C13.7395 45.5635 13.3874 45.4113 12.9217 45.3868C12.8813 45.3855 12.841 45.3843 12.8007 45.3843C12.4596 45.3843 12.1846 45.4555 12.0097 45.5156C11.0648 45.8077 10.1198 46.0998 9.17487 46.3907C9.0404 46.4471 8.68222 46.5834 8.21035 46.5834C8.00009 46.5834 7.7666 46.5564 7.51966 46.4827C6.58937 46.2041 6.15418 45.469 6.06494 45.3119L1.43673 36.991C1.34382 36.8265 1.22646 36.5725 1.1629 36.246C1.02476 35.517 1.27047 34.9292 1.32793 34.7991C1.45873 34.4984 1.63232 34.2701 1.78635 34.1069C2.67018 33.2699 3.55402 32.4329 4.43907 31.5947C4.53809 31.5002 4.64078 31.3848 4.7398 31.2474C5.05397 30.8055 5.1591 30.3539 5.19822 30.0655L5.23489 29.5341C5.1701 28.1559 5.10531 26.7776 5.04175 25.4006C5.02952 25.1834 4.98062 24.8017 4.76425 24.3869C4.57843 24.0335 4.34495 23.799 4.18969 23.664C3.45744 22.9964 2.72642 22.3288 1.99416 21.6611C1.82669 21.5347 1.27536 21.088 1.07243 20.278C0.8365 19.333 1.2448 18.5819 1.33404 18.4248C2.92568 15.6794 4.51609 12.9328 6.1065 10.1874C6.20063 10.0229 6.35711 9.79218 6.60527 9.57127C7.15904 9.08036 7.78982 8.992 7.92918 8.97605C8.0282 8.96377 8.12478 8.95764 8.21646 8.95764C8.42183 8.95764 8.6052 8.98464 8.75556 9.019C9.92423 9.3565 11.0929 9.69277 12.2616 10.0303C12.3936 10.0671 12.544 10.0978 12.7127 10.1113C12.7872 10.1186 12.8581 10.1211 12.9278 10.1211C13.3679 10.1211 13.7285 10.0045 13.9596 9.90509C14.8715 9.44732 15.7835 8.98832 16.6954 8.52932L17.9362 7.72423C18.1171 7.60395 18.4215 7.36955 18.6685 6.97436C18.8799 6.63564 18.9655 6.31532 19.0034 6.11282C19.2088 5.14205 19.4166 4.17005 19.6232 3.19927C19.6476 2.99064 19.7564 2.28864 20.3518 1.70568C21.0449 1.02455 21.8982 1 22.0791 1H31.5715C31.5764 1 31.5812 1 31.5861 1ZM27.0002 19.4091C31.7189 19.4091 35.5574 23.2627 35.5574 28C35.5574 32.7373 31.7189 36.5909 27.0002 36.5909C22.2815 36.5909 18.443 32.7373 18.443 28C18.443 23.2627 22.2815 19.4091 27.0002 19.4091ZM31.5739 3.45455H22.0791L22.0644 3.57236L22.0143 3.7135L21.3994 6.59882C21.2845 7.1965 21.062 7.76227 20.7393 8.27895C20.3652 8.87909 19.8738 9.38227 19.2821 9.77377L18.0218 10.5911L17.9093 10.6635L17.7907 10.7237L15.9485 11.6503L15.0549 12.0995L14.9852 12.135L14.9143 12.1657C14.2749 12.4382 13.6063 12.5756 12.9278 12.5756C12.7897 12.5756 12.6466 12.5695 12.5012 12.5572C12.2078 12.5315 11.9095 12.4787 11.6173 12.3989L9.86189 11.892L8.22257 11.4183L5.21778 16.6035L3.44766 19.6595L3.53813 19.727L3.63714 19.8448L4.66278 20.78L5.81434 21.8293C6.27154 22.2306 6.64561 22.7068 6.92799 23.2443C7.25317 23.8653 7.44387 24.5636 7.48299 25.2644L7.67736 29.4175L7.68347 29.5623L7.67369 29.7059L7.63702 30.2373L7.63091 30.3159L7.62113 30.3956C7.50866 31.224 7.19938 32.0132 6.72873 32.6747C6.55148 32.9214 6.35344 33.1509 6.13707 33.362L5.61752 33.8541L3.57113 35.7895L8.19935 44.1141L8.30815 44.0699L8.45606 44.0454L11.264 43.1777C11.7616 43.0132 12.2787 42.9298 12.8007 42.9298C12.8801 42.9298 12.9608 42.9322 13.0439 42.9359C13.7468 42.9727 14.4436 43.163 15.0634 43.4894L15.7346 43.8465L16.3837 44.1926L16.5023 44.2552L16.6111 44.3301L17.3103 44.8063L19.1415 46.0556L19.2076 46.101L19.2687 46.1489C19.9276 46.6644 20.452 47.3283 20.7857 48.0708C20.9092 48.3519 21.0082 48.639 21.0791 48.9311L21.4459 50.5094L21.8798 52.3736L26.4347 52.4583L31.3759 52.5455L31.3905 52.4289L31.4431 52.2877L32.1093 49.4122C32.2353 48.8145 32.4675 48.2537 32.7976 47.7456C33.1839 47.1516 33.6826 46.6582 34.2829 46.2765L35.3207 45.6273L38.015 43.892L38.8549 43.4477L39.1006 43.3176L39.1702 43.2808L39.2424 43.2489C39.9098 42.9494 40.6079 42.7985 41.3181 42.7985C41.4245 42.7985 41.532 42.8021 41.6421 42.8083C41.9489 42.8291 42.2508 42.8782 42.5454 42.9555L45.9451 43.8613L50.5538 35.5256L50.4584 35.4569L50.3582 35.344L48.1443 33.4037C47.6785 33.011 47.2935 32.5421 47.0013 32.0095C46.6627 31.3946 46.4561 30.6975 46.406 29.9943L46.3558 29.2395L46.3057 28.5056L46.2959 28.3694L46.3021 28.2332L46.3155 27.908L46.4316 25.165L46.4341 25.0877L46.4426 25.0091C46.5307 24.1783 46.8167 23.3805 47.2702 22.7043C47.4402 22.4515 47.6309 22.2183 47.8387 22.0023L49.1076 20.7321L50.341 19.4962L45.4793 11.3079L45.373 11.3557L45.2263 11.3852L42.4415 12.3314C41.9061 12.5265 41.3462 12.6247 40.7778 12.6247H40.7497L40.6678 12.6235C39.9612 12.6075 39.2803 12.4419 38.6421 12.1326L36.476 11.055L36.3439 10.99L36.2217 10.9102L35.2474 10.2696L34.4222 9.72836L34.3574 9.68541L34.2939 9.63755C33.6276 9.13559 33.0922 8.48023 32.745 7.74264C32.6167 7.4665 32.5115 7.17932 32.4357 6.886L31.9627 5.00091L31.5739 3.45455Z" stroke="#9092A0" stroke-width="2" mask="url(#path-1-outside-1_2_38)"/>
</svg>
